HIERARCHY
ROOT Hips
{
	OFFSET -0.001795 -0.223333 0.028219
	CHANNELS 6 Xposition Yposition Zposition Zrotation Yrotation Xrotation 
	JOINT LeftUpLeg
	{
		OFFSET 0.069520 -0.091406 -0.006815
		CHANNELS 3 Zrotation Yrotation Xrotation
		JOINT LeftLeg
		{
			OFFSET 0.034277 -0.375199 -0.004496
			CHANNELS 3 Zrotation Yrotation Xrotation
			JOINT LeftFoot
			{
				OFFSET -0.013596 -0.397961 -0.043693
				CHANNELS 3 Zrotation Yrotation Xrotation
				JOINT LeftToe
				{
					OFFSET 0.026358 -0.055791 0.119288
					CHANNELS 3 Zrotation Yrotation Xrotation
					End Site
					{
						OFFSET 0.000000 0.000000 0.000000
					}
				}
			}
		}
	}
	JOINT RightUpLeg
	{
		OFFSET -0.067670 -0.090522 -0.004320
		CHANNELS 3 Zrotation Yrotation Xrotation
		JOINT RightLeg
		{
			OFFSET -0.038290 -0.382569 -0.008850
			CHANNELS 3 Zrotation Yrotation Xrotation
			JOINT RightFoot
			{
				OFFSET 0.015774 -0.398415 -0.042312
				CHANNELS 3 Zrotation Yrotation Xrotation
				JOINT RightToe
				{
					OFFSET -0.025372 -0.048144 0.123348
					CHANNELS 3 Zrotation Yrotation Xrotation
					End Site
					{
						OFFSET 0.000000 0.000000 0.000000
					}
				}
			}
		}
	}
	JOINT Spine
	{
		OFFSET -0.002533 0.108963 -0.026696
		CHANNELS 3 Zrotation Yrotation Xrotation
		JOINT Spine1
		{
			OFFSET 0.005487 0.135180 0.001092
			CHANNELS 3 Zrotation Yrotation Xrotation
			JOINT Spine2
			{
				OFFSET 0.001457 0.052922 0.025425
				CHANNELS 3 Zrotation Yrotation Xrotation
				JOINT Neck
				{
					OFFSET -0.002778 0.213870 -0.042857
					CHANNELS 3 Zrotation Yrotation Xrotation
					JOINT Head
					{
						OFFSET 0.005152 0.064970 0.051349
						CHANNELS 3 Zrotation Yrotation Xrotation
						End Site
						{
							OFFSET 0.000000 0.000000 0.000000
						}
					}
				}
				JOINT LeftShoulder
				{
					OFFSET 0.078845 0.121749 -0.034090
					CHANNELS 3 Zrotation Yrotation Xrotation
					JOINT LeftArm
					{
						OFFSET 0.090977 0.030469 -0.008868
						CHANNELS 3 Zrotation Yrotation Xrotation
						JOINT LeftForeArm
						{
							OFFSET 0.259612 -0.012772 -0.027456
							CHANNELS 3 Zrotation Yrotation Xrotation
							JOINT LeftHand
							{
								OFFSET 0.249234 0.008986 -0.001171
								CHANNELS 3 Zrotation Yrotation Xrotation
								End Site
								{
									OFFSET 0.000000 0.000000 0.000000
								}
							}
						}
					}
				}
				JOINT RightShoulder
				{
					OFFSET -0.081759 0.118833 -0.038615
					CHANNELS 3 Zrotation Yrotation Xrotation
					JOINT RightArm
					{
						OFFSET -0.096012 0.032551 -0.009143
						CHANNELS 3 Zrotation Yrotation Xrotation
						JOINT RightForeArm
						{
							OFFSET -0.253742 -0.013329 -0.021401
							CHANNELS 3 Zrotation Yrotation Xrotation
							JOINT RightHand
							{
								OFFSET -0.255298 0.007772 -0.005559
								CHANNELS 3 Zrotation Yrotation Xrotation
								End Site
								{
									OFFSET 0.000000 0.000000 0.000000
								}
							}
						}
					}
				}
			}
		}
	}
}
MOTION
Frames: 11
Frame Time: 0.050000
0.476426 0.976422 2.674486 1.574026 2.968779 2.975804 1.750578 -1.210256 -14.808759 -4.893380 0.544387 9.461483 5.149798 12.986131 10.561952 0.000000 0.000000 0.000000 1.333391 -1.497935 12.343957 -1.543501 0.774129 12.307724 5.543704 5.318433 13.836906 0.000000 0.000000 0.000000 -5.844794 0.093534 0.338370 6.518479 -0.947266 -23.650020 2.224735 3.108998 33.578637 -4.025313 4.697198 -38.515944 0.000000 0.000000 0.000000 -29.359029 16.070589 -14.868123 -30.188754 16.100118 -7.904485 -120.897631 -43.677515 72.943264 0.000000 0.000000 0.000000 16.437611 -2.447459 -0.814036 48.172676 7.148159 -4.962034 157.816509 57.617626 156.575841 0.000000 0.000000 0.000000 
0.489440 0.991683 2.770434 1.719425 5.567285 1.965612 0.182239 -1.199919 -12.763660 -6.153763 0.515328 -3.244500 1.181760 8.904163 17.879450 0.000000 0.000000 0.000000 0.637804 -1.545813 13.010192 -1.750549 1.030599 19.108985 6.748425 5.159675 19.458947 0.000000 0.000000 0.000000 -6.824211 0.060304 -0.022419 6.047260 -0.898060 -22.378572 1.925026 2.017187 32.532692 -4.476393 4.967741 -37.713747 0.000000 0.000000 0.000000 -26.855310 16.384507 -14.326094 -32.404722 16.702057 -8.674706 -119.880402 -43.297304 71.051146 0.000000 0.000000 0.000000 15.333921 -1.485805 -0.226687 49.612850 5.968622 -5.322584 155.390381 57.114325 152.477357 0.000000 0.000000 0.000000 
0.502315 0.983023 2.860387 1.944027 7.777812 -0.584676 -2.111505 -1.038700 -9.605214 -5.498881 0.461850 -2.482128 -0.865542 6.010303 17.014955 0.000000 0.000000 0.000000 -0.037551 -1.198666 10.530938 -1.798959 1.171049 31.598919 3.372268 1.692557 13.955167 0.000000 0.000000 0.000000 -8.643766 0.077353 2.943033 6.201903 -0.840043 -23.578583 2.087723 -1.288410 33.950420 -4.748664 4.807050 -38.709127 0.000000 0.000000 0.000000 -30.345181 15.037477 -13.805244 -30.966044 15.092418 -8.128863 -119.699962 -46.991481 77.062198 0.000000 0.000000 0.000000 15.775514 -1.432158 -0.539709 49.101326 4.252040 -6.114836 152.491551 56.118149 145.032454 0.000000 0.000000 0.000000 
0.514491 0.957603 2.944973 2.072734 9.737407 -3.319565 -2.803996 -0.679976 -6.243855 -5.667419 0.527091 5.297573 -0.154379 4.829011 10.281488 0.000000 0.000000 0.000000 -1.467074 -0.314889 3.134041 -1.088133 0.269784 48.226831 0.659932 -1.035315 6.511909 0.000000 0.000000 0.000000 -9.234015 0.072437 5.489319 7.500983 -1.274064 -22.299193 -0.310033 -3.760024 33.724802 -4.621653 4.527314 -40.072199 0.000000 0.000000 0.000000 -34.043635 11.120417 -11.360737 -30.571525 10.662560 -7.298116 -116.685982 -54.239199 84.013830 0.000000 0.000000 0.000000 18.758882 -0.364100 -0.391460 46.933781 1.596634 -6.893737 148.051948 61.224280 139.714547 0.000000 0.000000 0.000000 
0.525430 0.936142 3.024145 1.638582 11.745137 -5.660798 -2.649295 -0.166087 -1.806016 -4.464524 0.239220 11.148879 1.496917 3.827359 1.423560 0.000000 0.000000 0.000000 -1.932247 0.303739 -4.122759 -2.220381 0.202810 52.895264 -1.286534 -3.343314 0.088866 0.000000 0.000000 0.000000 -8.389365 0.029545 8.538179 8.733095 -1.574081 -22.707585 -3.552576 -6.934276 34.139138 -4.149255 4.013633 -40.605609 0.000000 0.000000 0.000000 -38.361041 6.619593 -7.788027 -29.397026 2.771562 -5.771859 -111.447681 -65.091829 91.757472 0.000000 0.000000 0.000000 22.212737 0.222713 -0.849972 45.033977 -1.979905 -7.758541 139.346249 66.376491 129.118828 0.000000 0.000000 0.000000 
0.535285 0.939407 3.101701 1.601384 13.549200 -6.819918 -2.532979 0.368936 3.564091 -2.874841 -0.164531 13.003142 1.721958 3.560879 0.124631 0.000000 0.000000 0.000000 -3.309790 0.586249 -10.983858 -0.685991 -0.935747 47.869530 -1.964979 -4.445256 -2.027491 0.000000 0.000000 0.000000 -7.326523 -0.061498 10.312272 8.509372 -1.481903 -22.836962 -4.971073 -10.635105 33.309035 -5.431434 4.170530 -39.294389 0.000000 0.000000 0.000000 -37.171001 5.720254 -5.454977 -32.489204 -3.386833 -5.381720 -103.409660 -69.044882 88.899877 0.000000 0.000000 0.000000 23.855300 -0.735903 -2.501097 42.924245 -7.334078 -8.753659 121.514350 67.578897 105.067617 0.000000 0.000000 0.000000 
0.544577 0.954190 3.179495 0.926311 15.126138 -7.045252 -1.839873 0.696818 8.449951 -1.001603 -0.509335 12.287942 -0.205211 2.367691 4.620562 0.000000 0.000000 0.000000 -2.820224 0.744238 -13.787550 0.198076 -0.693943 33.492867 -1.648464 -4.556540 1.641712 0.000000 0.000000 0.000000 -5.705441 -0.165562 9.661902 7.922214 -1.229809 -23.646837 -6.019366 -13.627340 34.408188 -5.424235 3.854005 -39.213900 0.000000 0.000000 0.000000 -35.551703 5.821413 -4.298434 -34.705431 -7.610475 -5.036098 -102.440468 -68.493744 88.613051 0.000000 0.000000 0.000000 22.874011 -2.381750 -3.973241 41.628195 -11.502156 -9.641456 111.134671 67.057521 91.179586 0.000000 0.000000 0.000000 
0.552685 0.969276 3.257002 0.531093 15.659375 -6.294247 -0.843416 0.695023 10.225185 -0.648937 -0.670957 13.496869 -2.391401 0.911856 8.920728 0.000000 0.000000 0.000000 -2.604779 0.801580 -14.544712 -0.114020 0.139062 15.134685 0.811556 -0.610590 8.845965 0.000000 0.000000 0.000000 -4.283861 -0.167196 7.166624 8.286931 -1.222634 -24.847019 -7.599040 -14.605085 34.290955 -6.659433 4.347992 -35.906600 0.000000 0.000000 0.000000 -33.162317 6.529535 -4.334748 -36.147827 -8.005671 -5.130626 -97.917842 -66.946702 82.846880 0.000000 0.000000 0.000000 19.329347 -4.088007 -4.490142 42.651046 -14.879559 -10.980179 103.735817 64.132839 79.513726 0.000000 0.000000 0.000000 
0.558571 0.969139 3.331373 0.668180 16.092322 -6.128617 1.058793 0.411150 8.521641 -2.740248 -0.856060 21.692762 -1.511947 1.207866 6.779179 0.000000 0.000000 0.000000 -2.064108 0.868704 -14.320619 0.880899 -0.049039 5.739799 2.638881 1.625735 13.985264 0.000000 0.000000 0.000000 -3.071846 -0.179950 6.296416 6.940427 -0.817220 -25.252044 -7.565970 -13.943375 34.494401 -5.437074 3.892510 -34.437890 0.000000 0.000000 0.000000 -33.372975 6.937332 -5.178961 -36.476090 -8.423404 -4.867356 -98.278655 -63.534246 79.062050 0.000000 0.000000 0.000000 19.064764 -4.685992 -4.494164 42.632019 -16.527305 -11.560947 96.069946 63.264435 71.416512 0.000000 0.000000 0.000000 
0.562539 0.951282 3.400085 1.149178 17.170633 -7.202231 2.796085 0.108325 4.659317 -4.488056 -1.349116 31.538463 2.503684 5.540369 1.047329 0.000000 0.000000 0.000000 -1.206388 0.952595 -13.953680 1.086692 -0.116280 8.837330 3.837302 3.375848 15.630316 0.000000 0.000000 0.000000 -2.627696 -0.222022 6.849828 5.411679 -0.452332 -24.065400 -5.389143 -12.503137 32.574391 -5.344669 4.222778 -31.650085 0.000000 0.000000 0.000000 -34.292517 5.059660 -5.066356 -36.303662 -7.800861 -4.552338 -92.986241 -63.109070 72.236502 0.000000 0.000000 0.000000 19.101955 -5.162524 -4.197120 42.660682 -17.254119 -11.790469 90.955342 65.323260 69.838213 0.000000 0.000000 0.000000 
0.564591 0.929362 3.457519 0.605838 19.282180 -9.536185 4.659237 -0.129570 1.216621 -4.636606 -2.440650 38.107455 5.433453 9.112644 -3.561463 0.000000 0.000000 0.000000 0.324644 1.054197 -12.500356 0.447299 -0.253799 17.325773 0.615058 -0.497006 7.964354 0.000000 0.000000 0.000000 -1.875269 -0.443120 10.348319 4.890560 -0.249567 -24.513517 -4.890148 -10.913309 31.922744 -3.713455 3.877425 -32.986388 0.000000 0.000000 0.000000 -36.224806 2.444622 -4.939077 -35.163069 -6.496256 -4.308066 -78.706801 -65.679837 60.499172 0.000000 0.000000 0.000000 23.750841 -3.962187 -3.127677 41.169225 -12.761640 -10.280913 66.620687 69.777625 54.103381 0.000000 0.000000 0.000000 
